<?xml version="1.0" encoding="utf-8"?>
<!-- Generator: Adobe Illustrator 16.2.0, SVG Export Plug-In . SVG Version: 6.00 Build 0)  -->
<!DOCTYPE svg PUBLIC "-//W3C//DTD SVG 1.1//EN" "http://www.w3.org/Graphics/SVG/1.1/DTD/svg11.dtd">
<svg version="1.1" id="Layer_1" xmlns="http://www.w3.org/2000/svg" xmlns:xlink="http://www.w3.org/1999/xlink" x="0px" y="0px"
	 width="113.295px" height="6.488px" viewBox="0 0 113.295 6.488" enable-background="new 0 0 113.295 6.488" xml:space="preserve">
<g>
	
		<path fill="none" stroke="#4374B9" stroke-width="2.402" stroke-linecap="round" stroke-linejoin="round" stroke-miterlimit="10" d="
		M1.201,1.201c5.544,0,5.544,4.085,11.088,4.085c5.543,0,5.543-4.085,11.087-4.085c5.544,0,5.544,4.085,11.088,4.085
		c5.542,0,5.542-4.085,11.085-4.085s5.542,4.085,11.085,4.085c5.544,0,5.544-4.085,11.088-4.085c5.546,0,5.546,4.085,11.092,4.085
		c5.544,0,5.544-4.085,11.089-4.085c5.548,0,5.548,4.085,11.096,4.085s5.548-4.085,11.096-4.085"/>
</g>
</svg>
