<?xml version="1.0" encoding="utf-8"?>
<!-- Generator: Adobe Illustrator 16.2.0, SVG Export Plug-In . SVG Version: 6.00 Build 0)  -->
<!DOCTYPE svg PUBLIC "-//W3C//DTD SVG 1.1//EN" "http://www.w3.org/Graphics/SVG/1.1/DTD/svg11.dtd">
<svg version="1.1" id="Layer_1" xmlns="http://www.w3.org/2000/svg" xmlns:xlink="http://www.w3.org/1999/xlink" x="0px" y="0px"
	 width="310.295px" height="17.769px" viewBox="0 0 310.295 17.769" enable-background="new 0 0 310.295 17.769"
	 xml:space="preserve">
<path fill="#4374B9" d="M276.617,17.769c-8.677,0-13.176-3.313-17.145-6.234c-3.61-2.66-6.727-4.955-13.245-4.955
	c-6.513,0-9.628,2.295-13.236,4.952c-3.967,2.924-8.46,6.237-17.134,6.237c-8.677,0-13.173-3.313-17.139-6.237
	c-3.608-2.657-6.727-4.952-13.239-4.952c-6.511,0-9.626,2.295-13.231,4.952c-3.967,2.924-8.463,6.237-17.137,6.237
	c-8.671,0-13.166-3.313-17.131-6.237c-3.606-2.657-6.72-4.952-13.229-4.952s-9.622,2.295-13.229,4.952
	c-3.966,2.924-8.46,6.237-17.132,6.237s-13.168-3.313-17.135-6.237c-3.606-2.657-6.721-4.952-13.232-4.952
	c-6.51,0-9.625,2.295-13.231,4.952c-3.966,2.924-8.461,6.237-17.134,6.237c-8.672,0-13.168-3.313-17.135-6.237
	C12.917,8.874,9.801,6.579,3.29,6.579C1.474,6.579,0,5.105,0,3.289C0,1.474,1.474,0,3.29,0c8.674,0,13.17,3.313,17.137,6.237
	c3.606,2.657,6.721,4.952,13.232,4.952c6.51,0,9.625-2.295,13.231-4.952C50.857,3.313,55.352,0,64.024,0
	c8.673,0,13.168,3.313,17.135,6.235c3.606,2.659,6.722,4.954,13.232,4.954c6.509,0,9.622-2.295,13.229-4.952
	C111.585,3.313,116.081,0,124.751,0s13.166,3.313,17.131,6.237c3.606,2.657,6.72,4.952,13.229,4.952
	c6.51,0,9.626-2.295,13.231-4.954C172.309,3.313,176.805,0,185.479,0c8.676,0,13.172,3.313,17.139,6.235
	c3.608,2.659,6.727,4.954,13.239,4.954c6.51,0,9.626-2.295,13.231-4.952C233.057,3.313,237.553,0,246.227,0
	c8.677,0,13.176,3.313,17.145,6.235c3.611,2.659,6.727,4.954,13.245,4.954c6.518,0,9.634-2.295,13.244-4.954
	C293.831,3.313,298.33,0,307.005,0c1.816,0,3.29,1.474,3.29,3.289c0,1.816-1.474,3.29-3.29,3.29c-6.518,0-9.634,2.295-13.244,4.955
	C289.792,14.455,285.293,17.769,276.617,17.769z"/>
</svg>
